<svg width="18" height="12" viewBox="0 0 18 12" fill="none" xmlns="http://www.w3.org/2000/svg">
<path d="M17.8228 11.0198L13.3228 0.894844C13.2897 0.820345 13.2356 0.757053 13.1672 0.712629C13.0989 0.668204 13.0191 0.644551 12.9375 0.644531H5.06252C4.98172 0.644652 4.90265 0.667973 4.83472 0.711724C4.76679 0.755475 4.71285 0.817813 4.67932 0.891328V0.901172L0.177207 11.0198C0.148618 11.0841 0.136532 11.1544 0.142048 11.2245C0.147563 11.2946 0.170505 11.3622 0.208789 11.4211C0.247073 11.4801 0.299484 11.5286 0.36126 11.5621C0.423036 11.5957 0.492219 11.6133 0.56252 11.6133H17.4375C17.5078 11.6133 17.577 11.5957 17.6388 11.5621C17.7006 11.5286 17.753 11.4801 17.7913 11.4211C17.8295 11.3622 17.8525 11.2946 17.858 11.2245C17.8635 11.1544 17.8514 11.0841 17.8228 11.0198ZM4.64064 3.05414V10.7695H1.2115L4.64064 3.05414ZM5.48439 10.7695V3.05414L8.91354 10.7695H5.48439ZM9.83674 10.7695L5.7115 1.48828H12.6633L16.7885 10.7695H9.83674Z" fill="#484848"/>
</svg>
