<svg width="25" height="24" viewBox="0 0 25 24" fill="none" xmlns="http://www.w3.org/2000/svg">
<g id="icon / Explore 1">
<path id="Vector" d="M21.8333 12C21.8333 10.22 21.3055 8.47991 20.3165 6.99987C19.3276 5.51983 17.922 4.36628 16.2775 3.68509C14.6329 3.0039 12.8233 2.82567 11.0775 3.17294C9.33168 3.5202 7.72803 4.37737 6.46936 5.63604C5.21068 6.89472 4.35352 8.49836 4.00625 10.2442C3.65898 11.99 3.83721 13.7996 4.5184 15.4442C5.19959 17.0887 6.35314 18.4943 7.83318 19.4832C9.31323 20.4722 11.0533 21 12.8333 21" stroke="#484848" stroke-width="1.4" stroke-linecap="round" stroke-linejoin="round"/>
<path id="Vector_2" d="M4.43329 9H21.2333" stroke="#484848" stroke-width="1.4" stroke-linecap="round" stroke-linejoin="round"/>
<path id="Vector_3" d="M4.43329 15H12.3333" stroke="#484848" stroke-width="1.4" stroke-linecap="round" stroke-linejoin="round"/>
<path id="Vector_4" d="M12.3333 3C10.6486 5.69961 9.75549 8.81787 9.75549 12C9.75549 15.1821 10.6486 18.3004 12.3333 21" stroke="#484848" stroke-width="1.4" stroke-linecap="round" stroke-linejoin="round"/>
<path id="Vector_5" d="M13.3333 3C14.9505 5.58974 15.8397 8.56754 15.9073 11.62" stroke="#484848" stroke-width="1.4" stroke-linecap="round" stroke-linejoin="round"/>
<path id="Vector_6" d="M15.8333 18C15.8333 18.7956 16.1494 19.5587 16.712 20.1213C17.2746 20.6839 18.0377 21 18.8333 21C19.629 21 20.392 20.6839 20.9546 20.1213C21.5172 19.5587 21.8333 18.7956 21.8333 18C21.8333 17.2044 21.5172 16.4413 20.9546 15.8787C20.392 15.3161 19.629 15 18.8333 15C18.0377 15 17.2746 15.3161 16.712 15.8787C16.1494 16.4413 15.8333 17.2044 15.8333 18Z" stroke="#484848" stroke-width="1.4" stroke-linecap="round" stroke-linejoin="round"/>
<path id="Vector_7" d="M21.0333 20.2002L22.8333 22.0002" stroke="#484848" stroke-width="1.4" stroke-linecap="round" stroke-linejoin="round"/>
</g>
</svg>
