<svg width="25" height="24" viewBox="0 0 25 24" fill="none" xmlns="http://www.w3.org/2000/svg">
<g id="icon / Explore 1">
<path id="Vector" d="M21.8334 12C21.8334 10.22 21.3055 8.47991 20.3166 6.99987C19.3277 5.51983 17.9221 4.36628 16.2775 3.68509C14.633 3.0039 12.8234 2.82567 11.0776 3.17294C9.33174 3.5202 7.72809 4.37737 6.46942 5.63604C5.21074 6.89472 4.35358 8.49836 4.00631 10.2442C3.65904 11.99 3.83727 13.7996 4.51846 15.4442C5.19965 17.0887 6.3532 18.4943 7.83325 19.4832C9.31329 20.4722 11.0533 21 12.8334 21" stroke="#074535" stroke-width="2" stroke-linecap="round" stroke-linejoin="round"/>
<path id="Vector_2" d="M4.43335 9H21.2333" stroke="#074535" stroke-width="2" stroke-linecap="round" stroke-linejoin="round"/>
<path id="Vector_3" d="M4.43335 15H12.3333" stroke="#074535" stroke-width="2" stroke-linecap="round" stroke-linejoin="round"/>
<path id="Vector_4" d="M12.3334 3C10.6488 5.69961 9.75562 8.81787 9.75562 12C9.75562 15.1821 10.6488 18.3004 12.3334 21" stroke="#074535" stroke-width="2" stroke-linecap="round" stroke-linejoin="round"/>
<path id="Vector_5" d="M13.3334 3C14.9506 5.58974 15.8398 8.56754 15.9074 11.62" stroke="#074535" stroke-width="2" stroke-linecap="round" stroke-linejoin="round"/>
<path id="Vector_6" d="M15.8334 18C15.8334 18.7956 16.1494 19.5587 16.7121 20.1213C17.2747 20.6839 18.0377 21 18.8334 21C19.629 21 20.3921 20.6839 20.9547 20.1213C21.5173 19.5587 21.8334 18.7956 21.8334 18C21.8334 17.2044 21.5173 16.4413 20.9547 15.8787C20.3921 15.3161 19.629 15 18.8334 15C18.0377 15 17.2747 15.3161 16.7121 15.8787C16.1494 16.4413 15.8334 17.2044 15.8334 18Z" stroke="#074535" stroke-width="2" stroke-linecap="round" stroke-linejoin="round"/>
<path id="Vector_7" d="M21.0333 20.2002L22.8333 22.0002" stroke="#074535" stroke-width="2" stroke-linecap="round" stroke-linejoin="round"/>
</g>
</svg>
