<svg width="23" height="23" viewBox="0 0 23 23" fill="none" xmlns="http://www.w3.org/2000/svg">
<g id="icon">
<path id="Vector" d="M10.4573 11.1485L18.8231 11.1485C19.008 11.1485 19.1853 11.2219 19.3161 11.3527C19.4468 11.4834 19.5203 11.6607 19.5203 11.8456C19.5203 12.0305 19.4468 12.2079 19.3161 12.3386C19.1853 12.4693 19.008 12.5428 18.8231 12.5428L10.4573 12.5428C10.2724 12.5428 10.0951 12.4693 9.96431 12.3386C9.83357 12.2079 9.76012 12.0305 9.76012 11.8456C9.76012 11.6607 9.83357 11.4834 9.96431 11.3527C10.0951 11.2219 10.2724 11.1485 10.4573 11.1485ZM16.7317 5.57125C16.7317 5.75615 16.8051 5.93347 16.9359 6.06421C17.0666 6.19495 17.2439 6.2684 17.4288 6.2684H18.8231C19.008 6.2684 19.1853 6.19495 19.3161 6.06421C19.4468 5.93347 19.5203 5.75615 19.5203 5.57125C19.5203 5.38635 19.4468 5.20903 19.3161 5.07829C19.1853 4.94754 19.008 4.87409 18.8231 4.87409H17.4288C17.2439 4.87409 17.0666 4.94754 16.9359 5.07829C16.8051 5.20903 16.7317 5.38635 16.7317 5.57125ZM13.943 3.47979V4.87409H3.48573C3.30083 4.87409 3.12351 4.94754 2.99277 5.07829C2.86202 5.20903 2.78857 5.38635 2.78857 5.57125C2.78857 5.75615 2.86202 5.93347 2.99277 6.06421C3.12351 6.19495 3.30083 6.2684 3.48573 6.2684H13.943L13.943 7.66271C13.943 7.84761 14.0165 8.02493 14.1472 8.15567C14.278 8.28642 14.4553 8.35987 14.6402 8.35987C14.8251 8.35987 15.0024 8.28642 15.1332 8.15567C15.2639 8.02493 15.3374 7.84761 15.3374 7.66271L15.3374 3.47979C15.3374 3.29489 15.2639 3.11757 15.1332 2.98682C15.0024 2.85608 14.8251 2.78263 14.6402 2.78263C14.4553 2.78263 14.278 2.85608 14.1472 2.98682C14.0165 3.11757 13.943 3.29489 13.943 3.47979ZM13.943 18.12C13.943 18.3049 14.0165 18.4822 14.1472 18.613C14.278 18.7437 14.4553 18.8172 14.6402 18.8172H18.8231C19.008 18.8172 19.1853 18.7437 19.3161 18.613C19.4468 18.4822 19.5203 18.3049 19.5203 18.12C19.5203 17.9351 19.4468 17.7578 19.3161 17.6271C19.1853 17.4963 19.008 17.4229 18.8231 17.4229H14.6402C14.4553 17.4229 14.278 17.4963 14.1472 17.6271C14.0165 17.7578 13.943 17.9351 13.943 18.12ZM11.1544 16.0286V17.4229H3.48573C3.30083 17.4229 3.12351 17.4963 2.99277 17.6271C2.86202 17.7578 2.78857 17.9351 2.78857 18.12C2.78857 18.3049 2.86202 18.4822 2.99277 18.613C3.12351 18.7437 3.30083 18.8172 3.48573 18.8172H11.1544V20.2115C11.1544 20.3964 11.2279 20.5737 11.3586 20.7045C11.4894 20.8352 11.6667 20.9086 11.8516 20.9086C12.0365 20.9086 12.2138 20.8352 12.3445 20.7045C12.4753 20.5737 12.5487 20.3964 12.5487 20.2115V16.0286C12.5487 15.8437 12.4753 15.6663 12.3445 15.5356C12.2138 15.4049 12.0365 15.3314 11.8516 15.3314C11.6667 15.3314 11.4894 15.4049 11.3586 15.5356C11.2279 15.6663 11.1544 15.8437 11.1544 16.0286ZM6.9715 9.75418V11.1485H3.48573C3.30083 11.1485 3.12351 11.2219 2.99277 11.3527C2.86202 11.4834 2.78857 11.6607 2.78857 11.8456C2.78857 12.0305 2.86202 12.2079 2.99277 12.3386C3.12351 12.4693 3.30083 12.5428 3.48573 12.5428H6.9715L6.9715 13.9371C6.9715 14.122 7.04495 14.2993 7.17569 14.4301C7.30643 14.5608 7.48376 14.6343 7.66866 14.6343C7.85355 14.6343 8.03088 14.5608 8.16162 14.4301C8.29236 14.2993 8.36581 14.122 8.36581 13.9371V9.75418C8.36581 9.56928 8.29236 9.39195 8.16162 9.26121C8.03088 9.13047 7.85355 9.05702 7.66866 9.05702C7.48376 9.05702 7.30643 9.13047 7.17569 9.26121C7.04495 9.39195 6.9715 9.56928 6.9715 9.75418Z" fill="#3B4042" stroke="#074535" stroke-width="0.46477"/>
</g>
</svg>
