<svg width="25" height="24" viewBox="0 0 25 24" fill="none" xmlns="http://www.w3.org/2000/svg">
<g id="icon / Plan">
<path id="Vector" d="M9.16663 4V22M6.16663 4H17.1666C17.6971 4 18.2058 4.21071 18.5808 4.58579C18.9559 4.96086 19.1666 5.46957 19.1666 6V18C19.1666 18.5304 18.9559 19.0391 18.5808 19.4142C18.2058 19.7893 17.6971 20 17.1666 20H6.16663C5.90141 20 5.64706 19.8946 5.45952 19.7071C5.27198 19.5196 5.16663 19.2652 5.16663 19V5C5.16663 4.73478 5.27198 4.48043 5.45952 4.29289C5.64706 4.10536 5.90141 4 6.16663 4Z" stroke="black" stroke-width="1.4" stroke-linecap="round" stroke-linejoin="round"/>
<path id="Vector_2" d="M13.1666 8H15.1666" stroke="black" stroke-width="1.4" stroke-linecap="round" stroke-linejoin="round"/>
<path id="Vector_3" d="M13.1666 12H15.1666" stroke="black" stroke-width="1.4" stroke-linecap="round" stroke-linejoin="round"/>
</g>
</svg>
