<svg width="375" height="44" viewBox="0 0 375 44" fill="none" xmlns="http://www.w3.org/2000/svg">
<rect width="375" height="44" fill="#262626"/>
<path d="M36.856 18.1675C39.1118 18.1675 41.0747 19.7715 41.0747 23.5801V23.5947C41.0747 27.1543 39.4707 29.2637 36.812 29.2637C34.8711 29.2637 33.4209 28.1138 33.084 26.4951L33.0693 26.4146H34.9297L34.9517 26.4878C35.23 27.2275 35.8818 27.7109 36.812 27.7109C38.4893 27.7109 39.1997 26.0703 39.2803 24.0488C39.2803 23.9683 39.2876 23.8877 39.2876 23.8071H39.1411C38.7529 24.6421 37.8301 25.3818 36.3799 25.3818C34.3511 25.3818 32.9302 23.9023 32.9302 21.8955V21.8809C32.9302 19.7349 34.5635 18.1675 36.856 18.1675ZM36.8486 23.9316C38.0425 23.9316 38.958 23.0674 38.958 21.8735V21.8589C38.958 20.6504 38.0425 19.7056 36.8706 19.7056C35.7061 19.7056 34.7759 20.6357 34.7759 21.8149V21.8296C34.7759 23.0527 35.6475 23.9316 36.8486 23.9316ZM44.0799 22.1519C43.4134 22.1519 42.9154 21.6392 42.9154 20.9946C42.9154 20.3428 43.4134 19.8374 44.0799 19.8374C44.7537 19.8374 45.2445 20.3428 45.2445 20.9946C45.2445 21.6392 44.7537 22.1519 44.0799 22.1519ZM44.0799 27.5864C43.4134 27.5864 42.9154 27.0811 42.9154 26.4292C42.9154 25.7773 43.4134 25.272 44.0799 25.272C44.7537 25.272 45.2445 25.7773 45.2445 26.4292C45.2445 27.0811 44.7537 27.5864 44.0799 27.5864ZM52.2121 29V26.9712H47.0412V25.4258C48.4108 23.0454 49.9122 20.6138 51.3478 18.4312H54.0211V25.4111H55.442V26.9712H54.0211V29H52.2121ZM48.799 25.4551H52.2413V19.9399H52.1315C51.0475 21.5952 49.8244 23.5508 48.799 25.3452V25.4551ZM59.5019 29V20.2915H59.3774L56.748 22.1519V20.3721L59.5092 18.4312H61.3916V29H59.5019Z" fill="white"/>
<path d="M298 24.667C298.552 24.667 299 25.1147 299 25.667V27.667C299 28.2191 298.552 28.667 298 28.667H297C296.448 28.667 296 28.2191 296 27.667V25.667C296 25.1147 296.448 24.667 297 24.667H298ZM302.667 22.667C303.219 22.6672 303.667 23.1148 303.667 23.667V27.667C303.667 28.219 303.219 28.6668 302.667 28.667H301.667C301.115 28.667 300.667 28.2191 300.667 27.667V23.667C300.667 23.1147 301.115 22.667 301.667 22.667H302.667ZM307.333 20.333C307.885 20.333 308.333 20.7809 308.333 21.333V27.667C308.333 28.2191 307.885 28.667 307.333 28.667H306.333C305.781 28.6668 305.333 28.219 305.333 27.667V21.333C305.333 20.781 305.781 20.3332 306.333 20.333H307.333ZM312 18C312.552 18 313 18.4477 313 19V27.667C313 28.2191 312.552 28.667 312 28.667H311C310.448 28.667 310 28.2191 310 27.667V19C310 18.4477 310.448 18 311 18H312Z" fill="white"/>
<path d="M322.777 26.4006C324.052 25.3217 325.921 25.3217 327.197 26.4006C327.261 26.4586 327.297 26.5407 327.299 26.6271C327.301 26.7136 327.267 26.797 327.205 26.8576L325.208 28.8732C325.15 28.9324 325.07 28.966 324.987 28.966C324.903 28.966 324.824 28.9324 324.765 28.8732L322.767 26.8576C322.705 26.797 322.671 26.7135 322.673 26.6271C322.675 26.5407 322.713 26.4585 322.777 26.4006ZM320.112 23.7111C322.86 21.1551 327.116 21.1551 329.864 23.7111C329.926 23.771 329.961 23.8535 329.962 23.9396C329.963 24.0258 329.929 24.1089 329.869 24.1701L328.714 25.3371C328.595 25.4562 328.403 25.4589 328.281 25.3429C327.378 24.5258 326.204 24.0734 324.987 24.0734C323.77 24.0739 322.597 24.5263 321.695 25.3429C321.573 25.4587 321.381 25.456 321.262 25.3371L320.107 24.1701C320.046 24.109 320.012 24.0257 320.013 23.9396C320.014 23.8535 320.05 23.771 320.112 23.7111ZM317.447 21.0295C321.662 16.9903 328.312 16.9901 332.527 21.0295C332.588 21.0894 332.622 21.1716 332.622 21.257C332.623 21.3426 332.589 21.4248 332.529 21.4855L331.372 22.6525C331.253 22.772 331.061 22.7732 330.94 22.6554C329.334 21.1287 327.203 20.2776 324.987 20.2775C322.771 20.2775 320.639 21.1286 319.033 22.6554C318.912 22.7734 318.719 22.7722 318.6 22.6525L317.444 21.4855C317.383 21.4248 317.349 21.3426 317.35 21.257C317.351 21.1715 317.386 21.0894 317.447 21.0295Z" fill="white"/>
<g clip-path="url(#clip0_438_5297)">
<path opacity="0.35" d="M336.5 19.6667C336.5 18.47 337.47 17.5 338.667 17.5H355.333C356.53 17.5 357.5 18.47 357.5 19.6667V25.6667C357.5 26.8633 356.53 27.8333 355.333 27.8333H338.667C337.47 27.8333 336.5 26.8633 336.5 25.6667V19.6667Z" stroke="white"/>
<path opacity="0.4" d="M359 20.6667V24.6667C359.805 24.328 360.328 23.5399 360.328 22.6667C360.328 21.7936 359.805 21.0055 359 20.6667Z" fill="white"/>
<path d="M338 20.3333C338 19.597 338.597 19 339.333 19H354.667C355.403 19 356 19.597 356 20.3333V25C356 25.7364 355.403 26.3333 354.667 26.3333H339.333C338.597 26.3333 338 25.7364 338 25V20.3333Z" fill="white"/>
</g>
<defs>
<clipPath id="clip0_438_5297">
<rect width="25" height="16" fill="white" transform="translate(335 15)"/>
</clipPath>
</defs>
</svg>
