<svg width="11" height="14" viewBox="0 0 11 14" fill="none" xmlns="http://www.w3.org/2000/svg">
<g id="Vector">
<path fill-rule="evenodd" clip-rule="evenodd" d="M5.00755 3.68521C3.82229 3.68521 2.86146 4.64605 2.86146 5.8313C2.86146 7.01656 3.82229 7.9774 5.00755 7.9774C6.1928 7.9774 7.15364 7.01656 7.15364 5.8313C7.15364 4.64605 6.1928 3.68521 5.00755 3.68521ZM3.71989 5.8313C3.71989 5.12015 4.29639 4.54365 5.00755 4.54365C5.7187 4.54365 6.2952 5.12015 6.2952 5.8313C6.2952 6.54246 5.7187 7.11896 5.00755 7.11896C4.29639 7.11896 3.71989 6.54246 3.71989 5.8313Z" fill="white" fill-opacity="0.8"/>
<path fill-rule="evenodd" clip-rule="evenodd" d="M5.00755 0.251465C2.21286 0.251465 0 2.67957 0 5.60736C0 6.54634 0.466478 7.65202 1.05338 8.68963C1.64979 9.74403 2.41099 10.7966 3.07837 11.6477L3.10063 11.6761C3.42638 12.0915 3.70389 12.4454 3.97298 12.6899C4.26657 12.9565 4.59031 13.1311 5.00755 13.1311C5.42478 13.1311 5.74853 12.9565 6.04211 12.6899C6.31121 12.4454 6.58871 12.0915 6.91447 11.676L6.93672 11.6477C7.6041 10.7966 8.36531 9.74403 8.96171 8.68963C9.54862 7.65202 10.0151 6.54634 10.0151 5.60736C10.0151 2.67957 7.80224 0.251465 5.00755 0.251465ZM0.858437 5.60736C0.858437 3.0933 2.74516 1.1099 5.00755 1.1099C7.26994 1.1099 9.15666 3.0933 9.15666 5.60736C9.15666 6.30928 8.79061 7.24851 8.21452 8.26699C7.64794 9.26868 6.91569 10.2834 6.26122 11.1179C5.90699 11.5697 5.67377 11.8647 5.46491 12.0544C5.27444 12.2275 5.14729 12.2727 5.00755 12.2727C4.86781 12.2727 4.74066 12.2275 4.55018 12.0544C4.34133 11.8647 4.1081 11.5697 3.75388 11.1179C3.0994 10.2834 2.36716 9.26868 1.80057 8.26699C1.22449 7.24851 0.858437 6.30928 0.858437 5.60736Z" fill="white" fill-opacity="0.8"/>
</g>
</svg>
